<?xml version="1.0" standalone="no"?>
<!DOCTYPE svg PUBLIC "-//W3C//DTD SVG 20010904//EN"
 "http://www.w3.org/TR/2001/REC-SVG-20010904/DTD/svg10.dtd">
<svg version="1.0" xmlns="http://www.w3.org/2000/svg"
 width="256.000000pt" height="256.000000pt" viewBox="0 0 256.000000 256.000000"
 preserveAspectRatio="xMidYMid meet">
<metadata>
Created by potrace 1.11, written by Peter Selinger 2001-2013
</metadata>
<g transform="translate(0.000000,256.000000) scale(0.100000,-0.100000)"
fill="#000000" stroke="none">
<path d="M1109 2549 c-246 -35 -511 -155 -667 -303 -26 -25 -56 -53 -67 -63
-35 -31 -121 -136 -162 -198 -84 -125 -154 -293 -188 -450 -31 -141 -26 -415
9 -550 2 -5 6 -23 10 -40 4 -16 10 -37 13 -45 3 -8 7 -19 8 -25 6 -24 47 -120
76 -177 172 -342 511 -598 890 -673 94 -19 340 -28 409 -15 25 5 65 11 90 15
66 9 237 68 322 111 355 179 599 500 683 899 23 106 27 344 9 450 -30 171
-106 366 -193 493 -36 53 -39 64 -42 139 -4 73 -7 85 -34 119 -45 55 -88 74
-166 74 -60 0 -72 4 -120 36 -136 92 -329 167 -509 199 -56 10 -309 13 -371 4z"/>
</g>
</svg>
